<?xml version="1.0" encoding="UTF-8"?>
<svg id="_圖層_1" data-name="圖層 1" xmlns="http://www.w3.org/2000/svg" viewBox="0 0 294.09 66.54">
  <defs>
    <style>
      .cls-1 {
        fill: #fff;
      }

      .cls-2 {
        fill: #ffd635;
      }

      .cls-3 {
        fill: #ff4fa7;
      }

      .cls-4 {
        fill: #00c34b;
      }

      .cls-5 {
        fill: #dbff00;
      }

      .cls-6 {
        fill: #73ff2d;
      }

      .cls-7 {
        fill: #ff2d5a;
      }

      .cls-8 {
        fill: #58c8e0;
      }

      .cls-9 {
        fill: #ff6e1a;
      }

      .cls-10 {
        fill: #ffacd8;
      }

      .cls-11 {
        fill: #0090b7;
      }

      .cls-12 {
        fill: #8576bc;
      }
    </style>
  </defs>
  <g>
    <path class="cls-10" d="M176.54,57.1l1.34,.13c-.4,1.48-1.01,3.01-1.82,4.59l-1.34-.35c.81-1.46,1.41-2.91,1.82-4.37Zm11.97-10.69l.27,1.09c-2.4,.3-4.52,.52-6.35,.66-1.75,1.21-3.29,2.42-4.64,3.63-.16,.12-.24,.21-.24,.27,0,.09,.04,.13,.13,.13,.44,0,1.22-.12,2.34-.37,1.67-.8,3.78-1.56,6.34-2.3l.34,1.13c-1.43,.45-2.71,.9-3.82,1.34-.03,.01-.06,.02-.07,.02-1.27,.5-2.34,1.02-3.23,1.55-1.58,.94-2.37,1.56-2.37,1.87,0,.11,.15,.18,.44,.22,.22,.03,.92,.05,2.08,.05,.77,0,1.7-.12,2.79-.35,1.14-.22,2.58-.62,4.32-1.18-.41-.67-.8-1.37-1.16-2.1l1.14-.47c.61,1.2,1.44,2.54,2.5,4.03l-1.16,.61c-.26-.36-.5-.72-.72-1.08-1.96,.65-3.65,1.11-5.06,1.38v5.34h-1.34v-5.11c-.48,.04-.92,.07-1.31,.07h-.69c-1.11,0-1.97-.11-2.57-.34-.58-.24-.87-.57-.87-1.01,0-.63,.69-1.41,2.07-2.35-.04,.01-.08,.02-.12,.02-.99,0-1.48-.49-1.48-1.48,0-.27,.27-.64,.82-1.11,.86-.68,1.95-1.45,3.26-2.3-1.47,.06-3.12,.09-4.96,.1l-.07-1.14c2.92-.02,5.22-.09,6.89-.2,1.95-.1,4.11-.3,6.49-.61Zm-1.48,10.42c.45,1.41,1.03,2.96,1.75,4.64l-1.28,.35c-.68-1.64-1.27-3.19-1.75-4.66l1.28-.34Z"/>
    <path class="cls-10" d="M191.1,47.22h9.28v1.14h-4.62c-.32,1-.63,1.89-.92,2.69,1.78-.4,3.03-.61,3.75-.61h.4c.8,0,1.19,.34,1.19,1.01,0,.28-.24,.92-.72,1.92-.62,1.38-1.31,2.7-2.07,3.97-.82,1.39-1.9,2.97-3.26,4.74l-1.14-.67c1.06-1.41,1.93-2.65,2.61-3.71-.94-.81-1.83-1.64-2.67-2.49-.32,.61-.66,1.22-1.01,1.83l-1.14-.54c.72-1.29,1.37-2.58,1.95-3.88,.5-1.14,1.05-2.56,1.63-4.25h-3.24v-1.14Zm2.44,6.79c.81,.84,1.73,1.68,2.76,2.52,.65-1.11,1.32-2.4,2-3.88,.27-.55,.4-.87,.4-.97,0-.15-.07-.22-.2-.22-.5,0-1.87,.22-4.1,.67-.11,.27-.22,.52-.32,.76-.18,.37-.36,.75-.54,1.13Zm10.81-7.66h1.21v14.12c0,.43-.12,.75-.35,.97-.29,.26-.74,.39-1.34,.39h-.45c-.82,0-2.03-.07-3.63-.22l-.12-1.08c1.43,.13,2.57,.2,3.41,.2,.57,0,.96-.06,1.16-.18,.08-.09,.12-.27,.12-.55v-13.65Zm-3.09,1.28h1.21v11.43h-1.21v-11.43Z"/>
    <path class="cls-10" d="M214.81,46.14h1.28v1.61h6.39v1.16h-2.24c-.03,1.17-.21,2.35-.52,3.56h3.36v1.13h-15.46v-1.13h3.18l-.37-3.56h-2.2v-1.16h6.59v-1.61Zm-5.51,8.34h1.28v.54c4.21-.4,7.27-.61,9.18-.61h.57c.61,0,1.04,.13,1.31,.4,.25,.26,.37,.62,.37,1.08,0,1.29-.16,2.77-.49,4.45h.62v1.13h-11.56v.54h-1.28v-7.53Zm1.28,3.04h10.07c.07-.59,.1-1.14,.1-1.63,0-.27-.16-.4-.49-.4-2.4,0-5.62,.21-9.68,.62v1.41Zm0,2.82h9.65c.11-.61,.21-1.17,.29-1.7h-9.93v1.7Zm1.41-7.87h6.55c.28-1.33,.44-2.52,.49-3.56h-7.38l.34,3.56Z"/>
    <path class="cls-10" d="M227.49,46.14l.67,.81c-.75,.86-1.58,1.97-2.49,3.31,0,.26,.02,.39,.07,.39h1.04c.78-1.02,1.56-1.96,2.32-2.82l.81,.62v-1.01h1.16v.5c.17-.07,.34-.13,.5-.18,.26-.47,.46-1.01,.62-1.61l1.14,.07c-.15,.43-.31,.82-.5,1.19,.35-.08,.63-.12,.84-.12h.2c.4,0,.66,.24,.77,.72,.06,.38,.09,1.08,.1,2.08,.08-.16,.18-.32,.3-.49,.9-1.22,1.8-2.33,2.72-3.33l.67,.81c-.82,.87-1.71,1.99-2.69,3.36,0,.22,.02,.34,.07,.34h1.33c.68-.92,1.36-1.77,2.03-2.55l.87,.69c-.64,.84-1.34,1.82-2.1,2.94l.49-.18c.41,1.03,.97,2.19,1.68,3.48l-1.01,.54c-.13-.24-.26-.48-.39-.72-1.28,.35-2.09,.52-2.44,.52-.81,0-1.21-.45-1.21-1.34,0-.28,.15-.67,.45-1.16,.32-.48,.66-.95,.99-1.39h-.15c-.66,0-1.12-.04-1.38-.13-.11-.04-.2-.1-.27-.17-.04,.82-.18,1.71-.4,2.67h.49v1.06h-1.75v1.55h6.79v1.14h-2.86c.71,1.05,1.6,2.2,2.67,3.43l-1.16,.62c-1.08-1.28-2.07-2.63-2.97-4.05h-2.47v4.24h-1.28v-4.24h-2.74c-.87,1.39-1.84,2.76-2.91,4.12l-1.21-.74c.94-1.18,1.77-2.3,2.49-3.38h-3.03v-1.14h7.39v-1.55h-.72v.54h-1.16v-.32l-.87,.45c-.16-.27-.3-.54-.44-.82-1.4,.41-2.29,.62-2.66,.62-.85,0-1.28-.49-1.28-1.48,0-.29,.16-.69,.47-1.21,.35-.46,.69-.91,1.03-1.34h-.03c-.61,0-1.02-.05-1.24-.15-.28-.11-.42-.33-.42-.66,0-.36,.16-.77,.47-1.24,.84-1.19,1.69-2.27,2.55-3.26Zm.67,7.87c-.28-.59-.55-1.21-.81-1.85-.35,.53-.71,1.08-1.09,1.66-.21,.3-.32,.5-.32,.59,0,.1,.07,.15,.2,.15,.25,0,.92-.18,2.02-.55Zm1.75,.91v-6.34c-.74,.95-1.53,2.06-2.37,3.31l.76-.3c.39,1,.93,2.11,1.61,3.33Zm1.16-4.13h2.54v-.18c0-1.17-.04-1.89-.12-2.17-.03-.17-.12-.25-.27-.25-.28,0-1,.21-2.15,.62v1.98Zm0,3.18h2.12c.17-.8,.29-1.51,.35-2.15h-2.47v2.15Zm7.26,.15c-.27-.55-.52-1.11-.74-1.68-.31,.46-.63,.94-.94,1.43-.19,.28-.29,.46-.29,.55,0,.1,.07,.15,.2,.15,.21,0,.8-.15,1.76-.45Z"/>
    <path class="cls-10" d="M244.8,46.07l1.21,.55c-.1,.19-.2,.38-.3,.55,1.06-.3,2.01-.54,2.82-.71,1.09-.22,1.91-.34,2.47-.34h.52c.66,0,1.25,.26,1.78,.77,.71,.68,1.93,2.35,3.66,5.01l-1.28,.74c-.13-.24-.27-.46-.4-.67-.01,.74-.16,1.57-.44,2.49h.57v1.14h-11.36v.37h-1.21v-4.24l-.81,1.11-1.21-.61c1.55-2.06,2.87-4.12,3.97-6.18Zm-1.61,10.15h1.28v.4c3.98-.35,6.87-.52,8.67-.52h.54c.59,0,1.01,.12,1.24,.37,.25,.25,.37,.59,.37,1.04,0,.83-.13,1.79-.4,2.89h.54v1.13h-10.96v.47h-1.28v-5.78Zm.87-4.97c4.18-.45,7.22-.67,9.13-.67h.55c.3,0,.55,.03,.76,.1-.74-1.17-1.4-2.15-1.98-2.94-.39-.44-.83-.66-1.33-.66-.71,0-1.58,.11-2.62,.32-1.12,.22-2.3,.54-3.53,.94-.09,.13-.18,.28-.27,.44h8.37v1.06h-8.4v-.99c-.43,.68-.85,1.35-1.28,2h.61v.4Zm0,3.23h4.24v-2.69c-1.3,.11-2.71,.25-4.24,.42v2.27Zm.4,3.9h9.48c.04-.38,.07-.74,.07-1.08,0-.22-.13-.34-.4-.34-2.26,0-5.31,.19-9.14,.57v.84Zm0,2.03h9.14c.08-.36,.15-.7,.2-1.03h-9.34v1.03Zm1.41-8.22c.19,0,.36,.06,.5,.18,.16,.15,.24,.33,.24,.55s-.09,.41-.27,.55c-.15,.12-.3,.18-.47,.18-.22,0-.41-.08-.55-.25-.12-.15-.18-.31-.18-.49,0-.2,.06-.37,.17-.5,.15-.16,.34-.24,.57-.24Zm3.63,2.29h4.13c.29-1.02,.44-1.89,.44-2.62,0-.22-.13-.34-.4-.34-1.19,0-2.58,.06-4.17,.18v2.77Zm1.82-2.42c.19,0,.36,.06,.52,.17,.15,.16,.22,.35,.22,.57s-.08,.41-.25,.55c-.16,.12-.32,.18-.49,.18-.21,0-.4-.08-.55-.25-.12-.16-.18-.32-.18-.49,0-.19,.06-.36,.17-.52,.16-.15,.35-.22,.57-.22Z"/>
    <path class="cls-5" d="M258.83,46.34h1.28v1.08c4.54-.58,8.2-.87,10.97-.87h.24c1,0,1.56,.66,1.68,1.97,.08,.85,.13,2.66,.15,5.43,0,1.61-.24,3.61-.71,5.98h.97v1.16h-13.31v.79h-1.28v-15.53Zm1.28,13.58h11.08c.52-2.39,.75-4.38,.69-5.98,0-2.86-.05-4.7-.15-5.53-.04-.57-.31-.86-.79-.86-2.68,0-6.29,.29-10.82,.87v11.5Zm2.37-9.88h1.26v.69c1.75-.46,3.03-.69,3.85-.69h.25c.58,0,1,.13,1.26,.39,.24,.24,.35,.58,.35,1.03,0,1.39-.16,2.98-.49,4.77h.76v1.16h-5.98v.81h-1.26v-8.15Zm1.26,6.18h3.93c.34-1.87,.5-3.46,.5-4.77,0-.26-.13-.39-.4-.39-1.01,0-2.35,.24-4.03,.71v4.45Z"/>
    <path class="cls-5" d="M282.94,46.28l.2,.94c-1.36,.34-2.54,.56-3.55,.67-.86,.09-1.87,.16-3.03,.2-.01,.32-.02,.64-.03,.96,1.83-.37,3.54-.55,5.13-.55h.34c.67,0,1.01,.29,1.01,.87,0,.26-.11,.73-.32,1.41h.52v1.08h-4.44l.87,.47c-.21,.36-.44,.72-.67,1.08h1.61v-.87h1.14v.87h1.48v1.16h-1.48v1.13h1.34v1.09h-1.34v1.19h1.34v1.08h-1.34v1.29h1.61v1.13h-4.64v.54h-1.14v-6.5c-.3,.43-.62,.85-.94,1.28l-.42-.27c-.1,2.16-.21,3.99-.32,5.5l-1.21-.13c.28-4.08,.53-9.19,.74-15.33l1.21,.08c0,.16,0,.3-.02,.44,1.22-.02,2.21-.08,2.96-.18,1.01-.1,2.13-.3,3.38-.61Zm-6.67,9.03c.89-1.2,1.66-2.35,2.34-3.45h-2.18c-.06,1.22-.11,2.37-.15,3.45Zm.24-5.43c-.01,.31-.02,.62-.03,.91h5.13c.18-.52,.27-.89,.27-1.13,0-.19-.09-.29-.27-.29-1.5,0-3.2,.17-5.09,.5Zm2.2,5.82h1.88v-1.13h-1.88v1.13Zm0,2.29h1.88v-1.19h-1.88v1.19Zm0,2.37h1.88v-1.29h-1.88v1.29Zm4.71-13.46h6.72v1.14h-2.86c-.13,.52-.29,.99-.45,1.43,.63-.1,1.14-.15,1.53-.15h.24c.54,0,.92,.12,1.14,.35,.22,.21,.34,.52,.34,.92,0,2.13-.18,4.59-.54,7.39h.61v1.14h-5.09l.99,.49c-.43,.87-.87,1.68-1.34,2.4l-1.13-.61c.38-.58,.72-1.16,1.03-1.73h-.77v-10.3h1.14v.47c.25-.06,.48-.11,.69-.15,.15-.5,.26-1.06,.35-1.66h-2.59v-1.14Zm1.55,5.38h3.93c.02-.59,.03-1.15,.03-1.68,0-.21-.13-.32-.4-.32-.9,0-2.08,.18-3.56,.54v1.46Zm0,2.82h3.75c.04-.58,.08-1.14,.12-1.68h-3.87v1.68Zm0,2.89h3.43c.07-.61,.13-1.19,.2-1.75h-3.63v1.75Zm3.76,1.14c.4,.67,.94,1.43,1.61,2.29l-1.14,.61c-.59-.76-1.13-1.56-1.61-2.4l1.14-.49Z"/>
  </g>
  <g>
    <path class="cls-1" d="M1.88,3.28h7.06v-.67h1.21v.67h6.99v1.01h-6.99v.89h6.39v.92H2.55v-.92h6.39v-.89H1.88v-1.01Zm2.24,8.74H14.79v.81h-1.43c.48,.52,1.07,1.08,1.76,1.7l-.94,.45c-.28-.25-.56-.5-.84-.77-1.21,.17-2.3,.3-3.26,.39v.72h6.18v.87h-6.18v.87h6.99v.96H2.02v-.96h6.86v-.87H2.82v-.87h6.05v-.61c-1.13,.09-2.05,.13-2.76,.13-.81,0-1.21-.35-1.21-1.06,0-.09,.07-.22,.2-.39,.18-.19,.38-.38,.59-.57h-1.58v-.81Zm-1.83-1.68h1.21v.62c3.68-.54,6.32-.81,7.95-.81h.49c1.65,0,2.85,.06,3.61,.18,1.02,.18,1.53,.54,1.53,1.08,0,.74-.2,1.48-.61,2.24l-1.28-.22c.45-.94,.67-1.59,.67-1.93,0-.22-.3-.36-.89-.42-.9-.09-2.01-.13-3.33-.13-1.9,0-4.62,.32-8.15,.96v1.6h-1.21v-3.16Zm1.21-3.56h1.21v.42c3.29-.32,6.38-.49,9.24-.49h.57c.72,0,1.08,.29,1.08,.87,0,.24-.12,.66-.35,1.28h.55v.81H4.7v.49h-1.21v-3.38Zm1.21,2.08H14.07c.21-.48,.32-.84,.32-1.08,0-.18-.09-.27-.27-.27-2.76,0-5.89,.16-9.41,.49v.86Zm7.97,4.66c-.21-.22-.41-.45-.61-.69H7.12c-.32,.31-.64,.67-.96,1.08-.03,.03-.05,.06-.05,.07,0,.04,.05,.07,.15,.07,1.06,0,3.2-.17,6.4-.52Z"/>
    <path class="cls-1" d="M19.13,4.83h1.28v.91c1.96-.26,3.71-.46,5.24-.61V2.41h1.28v2.59c1.43-.11,2.66-.17,3.68-.17h.82c.82,0,1.4,.16,1.75,.49,.36,.32,.54,.9,.54,1.73,0,2.1-.2,4.07-.59,5.93h.72v1.26h-6.92v4.17h-1.28v-4.17h-5.24v.74h-1.28V4.83Zm1.28,8.15h5.24V6.24c-1.62,.16-3.37,.36-5.24,.61v6.13Zm6.52-6.84v6.84h4.82c.41-2.11,.62-4.03,.62-5.78,0-.48-.08-.81-.25-.99-.16-.16-.41-.24-.76-.24-1.37,0-2.85,.06-4.44,.17Z"/>
    <path class="cls-1" d="M42.37,2.54h1.28v1.68h7.13v1.21h-15.46v-1.21h7.06v-1.68Zm-5.98,4.84h1.29v.67c1.76-.21,3.32-.38,4.69-.5v-1.45h1.28v1.33c1.9-.16,3.35-.24,4.34-.24h.74c.67,0,1.05,.42,1.14,1.26,.07,.59,.1,1.61,.1,3.06,0,1.88-.05,3.39-.15,4.54-.1,.82-.59,1.23-1.46,1.23-1.15,0-2.25-.07-3.29-.22l-.07-1.08c1.45,.13,2.54,.2,3.29,.2,.2,0,.3-.13,.3-.39,.07-1.28,.1-2.71,.1-4.29-.01-1.28-.04-2.24-.1-2.89-.02-.25-.15-.37-.37-.37-.64,0-2.16,.1-4.57,.3v9.71h-1.28V8.67c-1.36,.11-2.92,.25-4.69,.4v8.12h-1.29V7.38Z"/>
    <path class="cls-1" d="M52.62,6.37h5.92c.49-1.15,1.01-2.41,1.55-3.76l1.28,.42c-.46,1.2-.9,2.31-1.33,3.34h6.97v1.28h-5.68c1.54,2.96,3.55,6.23,6.03,9.82l-1.29,.67c-2.25-3.28-4.32-6.78-6.22-10.49h-.34c-.57,1.33-1.11,2.5-1.63,3.51-1.19,2.22-2.58,4.54-4.18,6.97l-1.21-.61c1.42-2.17,2.71-4.35,3.85-6.52,.53-1,1.07-2.12,1.63-3.36h-5.34v-1.28Z"/>
    <path class="cls-1" d="M68.66,6.52h1.55V2.67h1.21v3.85h1.41v1.13h-1.41v6.89c.56-.26,1.1-.53,1.61-.82l.35,.92c.86-.02,1.6-.07,2.2-.15v-1.66h1.21v.03c.28-.3,.57-.64,.86-1.01,.1-.09,.15-.15,.15-.17,0-.08-.04-.12-.12-.12-.45,0-1.11,.07-2,.2-.78,.13-1.67,.38-2.66,.72l-.2-.92c.85-.3,1.73-.53,2.62-.67,.91-.18,1.74-.27,2.49-.29h.17c.68,0,1.03,.22,1.04,.67,0,.15-.15,.43-.45,.84-.5,.66-1.1,1.37-1.78,2.12,.66-.13,1.36-.33,2.1-.59l.27,1.06c-.92,.31-1.75,.54-2.49,.69v1.46c0,.43-.08,.75-.25,.97-.21,.25-.53,.37-.96,.37h-.34c-.41,0-1.02-.04-1.82-.12l-.13-1.03c.68,.15,1.22,.22,1.61,.22,.29,0,.5-.06,.62-.18,.03-.09,.05-.25,.05-.49v-1.03c-.72,.07-1.52,.11-2.42,.13v-.79c-1.15,.63-2.57,1.23-4.24,1.8l-.27-1.14c.53-.16,1.04-.34,1.55-.54V7.65h-1.55v-1.13Zm6.72-3.98h1.28v1.28h2.55v1.14h-6.45v-1.14h2.62v-1.28Zm-2,3.09h1.19v.49c1.04-.32,2.02-.49,2.94-.49h.22c.67,0,1.01,.3,1.01,.89,0,.38-.17,1.14-.52,2.27h.71c.52-2.04,.92-4.08,1.23-6.12l1.14,.13c-.11,.72-.24,1.43-.37,2.15h3.53v1.14h-.66c-.12,1.41-.42,2.84-.89,4.29-.19,.59-.41,1.23-.67,1.9,.62,1.62,1.42,3.37,2.42,5.24l-1.08,.67c-.81-1.55-1.48-2.98-2.02-4.3-.59,1.34-1.31,2.8-2.15,4.37l-1.14-.61c1.09-1.92,1.98-3.73,2.67-5.43-.22-.66-.41-1.28-.57-1.87-.12-.49-.23-.97-.32-1.45-.17,.63-.34,1.26-.5,1.9l-1.08-.29,.17-.61h-4.07v.4h-1.19V5.63Zm1.19,3.16h2.55c.31-.9,.47-1.55,.47-1.95,0-.17-.09-.25-.27-.25-.83,0-1.75,.14-2.76,.42v1.78Zm6.27-2.69c.04,1.37,.28,2.73,.71,4.1l.07,.24c.06-.16,.11-.31,.15-.47,.44-1.31,.73-2.6,.87-3.87h-1.8Z"/>
    <path class="cls-1" d="M86.32,2.67h1.28v.74c4.59-.45,8.29-.67,11.09-.67h.25c1,0,1.56,.67,1.68,2.02,.08,.86,.13,2.72,.15,5.56,0,1.66-.17,3.73-.52,6.22h.72v.99h-13.38v.61h-1.28V2.67Zm1.28,13.87h11.36c.39-2.49,.57-4.56,.54-6.22,0-2.97-.05-4.89-.15-5.75-.04-.58-.31-.87-.79-.87-2.71,0-6.36,.22-10.96,.67v12.17Zm.67-10.62h5.09c-.13-.44-.26-.87-.39-1.29l1.21-.34c.16,.55,.33,1.09,.52,1.63h3.78v1.13h-3.41c.39,1.12,.82,2.25,1.28,3.39,.43-.91,.8-1.82,1.13-2.72l1.14,.4c-.41,1.28-.96,2.56-1.63,3.85,.53,1.23,1.09,2.48,1.7,3.75l-1.21,.47c-.44-.95-.85-1.88-1.24-2.79-.57,1-1.19,1.97-1.85,2.92l-1.08-.74c.89-1.28,1.65-2.49,2.29-3.65-.71-1.7-1.32-3.33-1.85-4.89h-5.48v-1.13Zm5.24,7.8l.27,1.06c-1.03,.27-1.92,.45-2.67,.54-.77,.08-1.7,.12-2.77,.13v-1.14c1.13-.02,2.02-.07,2.67-.15,.75-.08,1.59-.22,2.5-.44Zm-4.5-6h1.16v.59c1.01-.25,1.74-.37,2.2-.37h.22c.44,0,.7,.14,.79,.42,.09,.27,.13,.8,.13,1.58,0,.57-.12,1.2-.35,1.88h.55v.94h-3.55v.54h-1.16V7.72Zm1.16,4.1h1.83c.25-.74,.37-1.37,.37-1.88s-.05-.83-.15-.96c-.03-.08-.14-.12-.32-.12-.22,0-.8,.1-1.73,.3v2.66Zm6.03-7.87c.18,0,.35,.06,.52,.17,.15,.16,.22,.35,.22,.57s-.08,.4-.25,.55c-.17,.12-.33,.18-.49,.18-.22,0-.41-.08-.55-.25-.12-.16-.18-.32-.18-.49,0-.19,.06-.36,.17-.52,.15-.15,.34-.22,.57-.22Z"/>
    <path class="cls-1" d="M105.05,4.96l1.28,.15c-.59,4.64-1.38,8.72-2.35,12.24l-1.33-.22c.99-3.42,1.79-7.47,2.4-12.17Zm4.84-2.29h1.28v13.93c0,.46-.13,.81-.39,1.06-.32,.28-.81,.42-1.46,.42h-.5c-.69,0-1.73-.1-3.09-.29l-.13-1.08c1.22,.18,2.18,.27,2.89,.27,.63,0,1.05-.06,1.28-.18,.09-.09,.13-.27,.13-.55V2.67Zm5.58,2.29c.76,3.74,1.61,7.73,2.55,11.97l-1.28,.42c-.93-3.99-1.78-8.03-2.55-12.12l1.28-.27Z"/>
  </g>
  <rect class="cls-1" x="145.86" y="36.97" width="2" height="29"/>
  <rect class="cls-1" x="149.39" y="36.58" width="141" height="1.94"/>
  <rect class="cls-1" x="0" y="64.04" width="145.7" height="2"/>
  <path class="cls-4" d="M1.88,33.28h7.03v-5.1h2.53v5.1h3.23v2.5h-3.23v10.34c1.41,1.66,2.95,3.33,4.64,4.99l-1.69,2c-1.01-1.03-1.99-2.07-2.95-3.13v10.83h-2.53v-13.75c-1.03-1.27-2.02-2.54-2.95-3.83l1.69-1.97c.42,.56,.84,1.14,1.27,1.72v-7.21h-2.6c-.52,10.48-1.05,18.4-1.62,23.77l-2.5-.28c.59-6.28,1.12-14.11,1.62-23.48H1.88v-2.5Zm21.09-5.1h2.67v3.83h8.05v2.5h-2.99c.91,3.98,2.04,7.97,3.38,11.95l-2.67,.6c-.42-1.38-.84-2.74-1.27-4.08-1.08,2.41-2.39,4.65-3.94,6.71,2.02,2.74,4.73,5.98,8.16,9.7l-2.39,1.55c-2.81-3.02-5.31-6-7.49-8.93-1.92,2.41-4.58,5.34-7.98,8.79l-2.39-1.55c3.8-3.77,6.71-6.94,8.75-9.49-1.34-2.04-2.67-4.31-4.01-6.82-.52,1.36-1.07,2.73-1.65,4.11l-2.67-.74c.96-2.13,1.78-4.23,2.46-6.29,.61-1.78,1.15-3.62,1.62-5.52h-2.92v-2.5h7.28v-3.83Zm-2.99,11.57c1.38,2.6,2.92,5.17,4.61,7.7,1.83-2.6,3.3-5.44,4.43-8.51-.4-1.48-.76-2.95-1.09-4.43h-6.54c-.45,1.97-.91,3.71-1.41,5.24Z"/>
  <g>
    <path class="cls-8" d="M54.4,49.07h-3.23c-.4,.42-.81,.82-1.23,1.2-.23,.75-.43,1.52-.6,2.32-.19,1.12-.28,1.78-.28,1.97s.14,.28,.42,.28l.42-.04c1.31-.21,2.72-.48,4.22-.81v1.86c-2.11,.42-3.66,.7-4.64,.84-.33,.07-.56,.11-.7,.11h-.25c-1.24,0-1.86-.61-1.86-1.83,0-.23,.08-.9,.25-2-.91,.77-1.84,1.54-2.78,2.29l-2.11-1.34v3.34h19.97c-3.09-2.2-6.05-4.61-8.86-7.21l1.27-.98Z"/>
    <path class="cls-8" d="M66,32.47c-.09-1.22-.68-1.83-1.76-1.83-2.62,0-5.67,.09-9.14,.28v2.81h8.58v1.97h-8.58v2.53h9.14v1.97h-20.81v-1.97h9.14v-2.53h-8.44v-1.97h8.44v-2.64c-3.19,.21-6.7,.5-10.55,.88v21.76c1.76-1.31,3.35-2.58,4.78-3.8h-1.83v-8.19h2.53v.95c4.57-.63,8.84-.95,12.8-.95h.84c1.5,0,2.25,.61,2.25,1.83,0,.59-.27,1.72-.81,3.41h1.23v2.07h-8.4c2.53,2.25,5.29,4.41,8.26,6.47l-1.69,1.72h2.99c.98-5.13,1.44-9.42,1.37-12.87,0-6.16-.12-10.14-.35-11.92Zm-4.08,19.34c-.3,.23-.61,.35-.91,.35-.38,0-.69-.15-.95-.46-.21-.3-.32-.62-.32-.95s.09-.62,.28-.88c.26-.26,.59-.39,.98-.39,.35,0,.68,.11,.98,.32,.28,.23,.42,.55,.42,.95,0,.42-.16,.77-.49,1.05Z"/>
    <path class="cls-8" d="M36.69,27.07V62.07h35V27.07H36.69Zm32.2,30.19v2.07h-26.86v1.27h-2.67V28.71h2.67v1.09c9.3-.84,16.8-1.27,22.5-1.27h.53c2.16,0,3.38,1.41,3.66,4.22,.16,1.8,.27,5.68,.32,11.64,0,3.45-.45,7.73-1.34,12.87h1.2Z"/>
    <path class="cls-8" d="M60.87,44.04c0-.4-.19-.6-.56-.6-3.77,0-8.04,.32-12.8,.95v2.6h12.62c.49-1.38,.74-2.37,.74-2.95Z"/>
  </g>
  <path class="cls-3" d="M74.43,32.09h11.25c.82-1.36,1.62-2.73,2.39-4.11l2.67,.7c-.7,1.17-1.38,2.31-2.04,3.41h17.79v2.5h-19.34c-1.2,1.95-2.3,3.69-3.3,5.24,7.12-1.03,12.89-1.55,17.3-1.55h.53c.89,0,1.59,.45,2.11,1.34,.4,.68,.6,3.42,.6,8.23,0,3.59-.11,6.61-.32,9.07-.14,1.45-.55,2.51-1.23,3.16-.61,.56-1.66,.88-3.16,.95h-.77c-1.81,0-4.1-.13-6.89-.39l-.28-2.29c2.74,.28,5.13,.42,7.17,.42,1.52,0,2.33-.52,2.43-1.55,.09-.77,.16-1.65,.21-2.64h-18.11v6.57h-2.67v-16.84c-1.43,2.06-2.88,4.07-4.36,6.01l-2.39-1.65c2.58-3.16,4.96-6.41,7.14-9.74,1.01-1.41,1.99-2.86,2.95-4.36h-9.67v-2.5Zm9,13.5h18.25c-.02-2.72-.09-4.24-.21-4.57-.14-.35-.39-.53-.74-.53-3.05,0-8.81,.56-17.3,1.69v3.41Zm0,6.57h18.21c.07-1.27,.11-2.67,.11-4.22h-18.32v4.22Z"/>
  <g>
    <path class="cls-2" d="M138.66,46.47c-.14-.23-.39-.35-.74-.35-2.16,0-6.23,.38-12.23,1.12v2.11h13.18c-.02-1.69-.09-2.65-.21-2.88Z"/>
    <path class="cls-2" d="M108.82,27.07V62.07h35V27.07h-35Zm32.37,30.89c-.12,1.08-.47,1.88-1.05,2.39-.54,.4-1.44,.62-2.71,.67h-.63c-1.55,0-3.52-.09-5.91-.28l-.28-2.11c2.34,.21,4.41,.32,6.19,.32,1.15,0,1.76-.36,1.83-1.09,.05-.54,.09-1.12,.14-1.76h-13.08v4.64h-2.67v-13.25l-1.12,1.3c-.87-.59-1.71-1.18-2.53-1.79v13.75h-2.67v-15.79c-1.01-.8-2-1.62-2.99-2.46-.28,5.13-.55,9.29-.81,12.48l-2.53-.28c.49-5.98,.91-13.48,1.27-22.5h2.53c-.09,2.48-.19,4.8-.28,6.96,.89,.84,1.83,1.68,2.81,2.5v-13.54h2.67v15.68c1.15,.87,2.37,1.75,3.66,2.64v-2.39h2.67v1.2c5.16-.73,9.33-1.09,12.52-1.09h.56c.89,0,1.58,.33,2.07,.98,.4,.54,.6,2.59,.6,6.15,0,2.62-.08,4.85-.25,6.68Zm1.09-15.47h-21.23v-2.29h9.14v-2.67h-7.45v-2.11h7.45v-2.81h-8.3v-2.21h8.3v-2.29h2.67v2.29h8.44v2.21h-8.44v2.81h7.73v2.11h-7.73v2.67h9.42v2.29Z"/>
    <path class="cls-2" d="M125.68,53.99h13.18c0-.77,.01-1.61,.04-2.5h-13.22v2.5Z"/>
  </g>
  <path class="cls-12" d="M150.36,9.48c4.12,3.12,6.19,5.7,6.19,7.73,0,3-1.88,8.48-5.62,16.45l-2.53-1.12c3.68-7.99,5.52-13.1,5.52-15.33,0-.96-1.79-2.84-5.38-5.62l1.83-2.11Zm2.67-7.84c.59,0,1.11,.16,1.58,.49,.44,.4,.67,.93,.67,1.58s-.26,1.24-.77,1.69c-.49,.38-.98,.56-1.48,.56-.63,0-1.16-.26-1.58-.77-.35-.47-.53-.96-.53-1.48,0-.59,.16-1.07,.49-1.44,.42-.42,.96-.63,1.62-.63Zm5.48,17.26h2.67v1.2c7.01-1.08,12.13-1.62,15.36-1.62h.95c1.22,0,2.09,.27,2.6,.81,.54,.52,.81,1.24,.81,2.18,0,2.6-.39,5.6-1.16,9h2.25v2.36h-26.16v-2.36h2.67v-11.57Zm1.69-17.58h2.71v1.44c5.58-.96,9.67-1.44,12.27-1.44h.77c1.22,0,2.09,.27,2.6,.81,.52,.49,.77,1.21,.77,2.14,0,2.91-.39,6.23-1.16,9.98h1.3v2.43h-16.56v1.09h-2.71V1.33Zm.98,29.14h3.66v-8.79c-1.17,.16-2.39,.35-3.66,.56v8.23Zm1.72-16.21h12.59c.77-3.91,1.16-7.24,1.16-9.98,0-.54-.28-.81-.84-.81-1.34,0-2.86,.08-4.57,.25l1.62,1.16c-.82,1.01-1.7,2.06-2.64,3.16,1.57,1.27,3.15,2.45,4.75,3.55l-1.41,1.83c-1.88-1.31-3.49-2.51-4.85-3.59-1.05,1.2-2.16,2.44-3.3,3.73l-1.83-1.55c2.62-2.74,4.98-5.5,7.07-8.26-2.3,.26-4.88,.66-7.73,1.2V14.27Zm4.5,16.21h3.76v-9.56c-1.2,.12-2.45,.27-3.76,.46v9.11Zm6.29,0h3.34c.77-3.54,1.16-6.54,1.16-9,0-.59-.28-.88-.84-.88-1.12,0-2.34,.05-3.66,.14v9.74Z"/>
  <path class="cls-6" d="M227.81,.98l2.53,1.3c-.8,1.62-1.64,3.25-2.53,4.89v26.86h-2.53V11.66c-.91,1.57-1.85,3.12-2.81,4.64l-2.25-1.41c2.98-4.87,5.51-9.51,7.59-13.92Zm1.83,24.19h16.73v-2.39h2.67v2.39h4.5v2.43h-4.5v3.9c0,.82-.25,1.42-.74,1.79-.52,.4-1.35,.6-2.5,.6h-1.27c-1.34,0-2.88-.13-4.64-.39l-.28-2.14c1.92,.38,3.61,.56,5.06,.56,1.12,0,1.69-.28,1.69-.84v-3.48h-16.73v-2.43Zm.98-22.22h9.84V1.12h2.53v1.83h9.98v2.39h-9.98v1.65c2.16-.14,3.93-.21,5.31-.21h.88c1.17,0,2,.25,2.5,.74s.74,1.18,.74,2.07c0,1.74-.28,3.75-.84,6.05h1.16v2.07h-2.29c.89,1.57,1.97,3.26,3.23,5.06l-2.25,1.12c-.54-.82-1.07-1.66-1.58-2.53-3.49,.52-6.57,.87-9.25,1.05-2.91,.19-6.42,.3-10.55,.35v-2.11c4.41-.02,7.88-.14,10.41-.35v-2.6h-6.05v1.09h-2.53V6.88h2.53v.84c2.23-.23,4.24-.42,6.05-.56v-1.82h-9.84V2.95Zm3.52,24.89c.52,0,.97,.15,1.37,.46,.4,.33,.6,.79,.6,1.37s-.22,1.08-.67,1.48c-.42,.33-.86,.49-1.3,.49-.52,0-.97-.22-1.37-.67-.3-.42-.46-.86-.46-1.3,0-.49,.14-.91,.42-1.27,.38-.38,.84-.56,1.41-.56Zm.28-16.45h6.05v-2.39c-1.88,.14-3.89,.34-6.05,.6v1.79Zm0,4.25h6.05v-2.29h-6.05v2.29Zm8.58-6.82v2.57h6.79c.07-.75,.11-1.45,.11-2.11,0-.47-.28-.7-.84-.7-1.73,0-3.75,.08-6.05,.25Zm0,4.54v2.29h6.01c.19-.82,.34-1.58,.46-2.29h-6.47Zm5.8,6.15c-.33-.58-.64-1.18-.95-1.79h-4.85v2.43c1.83-.16,3.76-.37,5.8-.63Z"/>
  <g>
    <path class="cls-9" d="M213.31,9.41c0-.09-.63-.14-1.9-.14-1.64,0-3.7,.34-6.19,1.02,1.27,.63,2.58,1.23,3.94,1.79,.96-.45,2.04-1.07,3.23-1.86,.61-.45,.91-.71,.91-.81Z"/>
    <path class="cls-9" d="M192.36,24.6c2.72-.33,5.16-.59,7.31-.77v-1.62h-7.7c-.4,.59-.81,1.15-1.23,1.69h1.62v.7Z"/>
    <path class="cls-9" d="M199.81,11c0-.4-.14-.6-.42-.6-1.43,0-2.93,.06-4.5,.18v2.5h4.39c.35-.96,.53-1.65,.53-2.07Z"/>
    <path class="cls-9" d="M192.36,10.86c-1.34,.16-2.73,.36-4.18,.6-.05,.56-.09,1.1-.14,1.62h4.32v-2.21Z"/>
    <path class="cls-9" d="M209.09,25.02c-4.15,0-9.73,.43-16.73,1.3v1.27h17.47c.07-.68,.1-1.3,.1-1.86,0-.47-.28-.7-.84-.7Z"/>
    <path class="cls-9" d="M192.36,31.21h16.8c.19-.7,.33-1.35,.42-1.93h-17.23v1.93Z"/>
    <path class="cls-9" d="M183.58,0V35h35V0h-35Zm19.79,1.54h2.36v.84c3.54-.94,6.07-1.41,7.59-1.41h.42c1.22,0,1.83,.61,1.83,1.83,0,.28-.7,1.36-2.11,3.23,0,.19,.09,.28,.28,.28,.33,0,1.41-.14,3.23-.42v1.41c-2.16,.28-3.47,.42-3.94,.42h-.42c-1.12,0-1.69-.52-1.69-1.55,0-.16,.75-1.24,2.25-3.23,0-.19-.14-.28-.42-.28-1.08,0-3.42,.49-7.03,1.48v4.18h-2.36V1.54Zm-18,1.12h7.14V1.12h2.39v1.55h6.89v1.83h-6.89v1.83h5.91v1.86h-14.48v-1.86h6.19v-1.83h-7.14v-1.83Zm.81,6.33h2.25c-.02,.35-.05,.69-.07,1.02,3.91-.68,7.58-1.02,11-1.02h.74c1.22,0,1.83,.52,1.83,1.55,0,.47-.19,1.31-.56,2.53h.98v1.69h-14.48c-.19,1.59-.38,2.92-.56,3.97l-2.25-.14c.44-2.55,.82-5.75,1.12-9.6Zm27,8.44c-4.15,.42-7.8,.7-10.97,.84v2h14.48v1.93h-3.69c1.36,1.78,2.87,3.57,4.54,5.38l-2.25,1.09c-1.03-1.12-2-2.27-2.92-3.45,.07,.28,.11,.6,.11,.95,0,1.45-.25,3.13-.74,5.03h1.44v1.97h-20.81v.84h-2.5v-8.89c-.96,1.2-1.96,2.38-2.99,3.55l-2.25-1.41c1.64-1.73,3.09-3.42,4.36-5.06h-3.62v-1.93h14.31v-1.9c-2.79,.12-5.98,.19-9.56,.21v-1.86c4.97-.05,8.86-.15,11.67-.32,3.16-.16,6.64-.46,10.44-.88-.98-.4-1.96-.81-2.92-1.23-1.55,.63-3.4,1.25-5.55,1.86l-.39-1.69c1.29-.45,2.45-.88,3.48-1.3-1.24-.59-2.46-1.18-3.66-1.79l1.12-.84c-.45,.12-.91,.27-1.41,.46l-.14-1.58c3.47-1.12,6.35-1.69,8.65-1.69,1.5,0,2.62,.05,3.38,.14,.96,.19,1.45,.56,1.48,1.12,0,.54-.29,1.1-.88,1.69-.84,.8-2.09,1.63-3.73,2.5,1.9,.8,3.86,1.57,5.87,2.32l-1.55,1.55c-1.08-.42-2.13-.84-3.16-1.27l.35,1.65Z"/>
    <path class="cls-9" d="M202.2,23.62c2.46-.19,4.48-.28,6.05-.28h.98c.8,0,1.43,.12,1.9,.35-.4-.47-.76-.96-1.09-1.48h-7.84v1.41Z"/>
  </g>
  <g>
    <path class="cls-7" d="M264.08,5.3c.47,1.38,1.03,2.83,1.69,4.32,2.39-.49,4.44-.83,6.15-1.02-.45-1.27-.81-2.44-1.09-3.52-2.06,.09-4.31,.16-6.75,.21Z"/>
    <path class="cls-7" d="M274.59,8.39c.23-.02,.46-.04,.67-.04h2.39c.77,0,1.5,.01,2.18,.04,.35-.66,.67-1.29,.95-1.9,.35-.66,.7-1.44,1.05-2.36-3.02,.35-5.8,.62-8.33,.81,.3,1.12,.67,2.27,1.09,3.45Z"/>
    <path class="cls-7" d="M282.18,22.28c0-.09-.09-.14-.28-.14-2.55,0-8.17,.73-16.84,2.18,2.58,1.01,5.11,1.91,7.59,2.71,2.46-1.08,4.77-2.14,6.93-3.2,1.73-.84,2.6-1.36,2.6-1.55Z"/>
    <path class="cls-7" d="M255.33,0V35h35V0h-35Zm31.21,33.57c-4.99-1.2-9.49-2.46-13.5-3.8-2.95,1.29-6.33,2.64-10.12,4.04l-1.51-2.11c2.72-1.08,5.33-2.14,7.84-3.2-2.53-.82-4.95-1.72-7.24-2.71-.66,2.37-1.43,4.76-2.32,7.17l-2.67-.7c1.55-4.1,2.72-8.21,3.52-12.34l2.81,.25c-.16,.87-.35,1.74-.56,2.6,8.88-1.73,15.73-2.6,20.53-2.6h.32c1.52,0,2.31,.56,2.36,1.69,0,1.05-1.62,2.4-4.85,4.04-1.38,.73-2.93,1.51-4.64,2.36,3.28,.96,7.01,1.92,11.18,2.88l-1.12,2.43Zm.42-14.8l-2.67-.39c1.12-3.21,1.69-5.23,1.69-6.05-.05-.87-.67-1.41-1.86-1.62-.82-.12-1.72-.2-2.71-.25-.07,.09-.14,.2-.21,.32l-.28-.21c.8,1.38,1.69,2.75,2.67,4.11l-1.97,.98c-1.22-1.73-2.36-3.52-3.41-5.34h-1.09c-1.85,0-4.03,.19-6.54,.56-.23,2.2-.35,3.61-.35,4.22,0,1.78,.7,2.67,2.11,2.67,2.86,0,6.52-.42,10.97-1.27l-.28,2c-4.48,.73-8.18,1.09-11.11,1.09-1.52,0-2.62-.37-3.3-1.12-.66-.8-1.01-1.86-1.05-3.2,0-.63,.09-1.96,.28-3.97-.73,.12-1.46,.25-2.21,.39-.38,3.26-.76,5.75-1.16,7.49l-2.53-.28c.4-1.83,.77-4.05,1.12-6.68-1.01,.23-2.04,.47-3.09,.7v6.12h-2.67V9.2h2.67v1.65c1.12-.28,2.2-.53,3.23-.74-.77-1.71-1.39-3.29-1.86-4.75-1.27,.02-2.57,.04-3.9,.04V3.16c6.45-.05,11.52-.21,15.22-.49,4.29-.26,9.06-.75,14.31-1.48l.56,2.29c-.94,.12-1.85,.22-2.74,.32-.54,1.43-1.04,2.6-1.51,3.52-.21,.42-.43,.82-.67,1.2,1.15,.09,2.09,.21,2.81,.35,2.11,.49,3.19,1.5,3.23,3.02,0,1.97-.56,4.27-1.69,6.89Zm-10.69-5.34c0,.47-.18,.86-.53,1.16-.33,.26-.67,.39-1.02,.39-.45,0-.83-.18-1.16-.53-.26-.3-.39-.64-.39-1.02,0-.42,.12-.77,.35-1.05,.33-.33,.73-.49,1.2-.49,.4,0,.76,.12,1.09,.35,.3,.33,.46,.73,.46,1.2Z"/>
  </g>
  <g>
    <rect class="cls-11" x="1.88" y="63.57" width=".97" height="2.92"/>
    <path class="cls-11" d="M140.93,66.5h-1.97v-2.92h1.97v2.92Zm-3.95,0h-1.97v-2.92h1.97v2.92Zm-3.95,0h-1.97v-2.92h1.97v2.92Zm-3.95,0h-1.97v-2.92h1.97v2.92Zm-3.95,0h-1.97v-2.92h1.97v2.92Zm-3.95,0h-1.97v-2.92h1.97v2.92Zm-3.95,0h-1.97v-2.92h1.97v2.92Zm-3.95,0h-1.97v-2.92h1.97v2.92Zm-3.95,0h-1.97v-2.92h1.97v2.92Zm-3.95,0h-1.97v-2.92h1.97v2.92Zm-3.95,0h-1.97v-2.92h1.97v2.92Zm-3.95,0h-1.97v-2.92h1.97v2.92Zm-3.95,0h-1.97v-2.92h1.97v2.92Zm-3.95,0h-1.97v-2.92h1.97v2.92Zm-3.95,0h-1.97v-2.92h1.97v2.92Zm-3.95,0h-1.97v-2.92h1.97v2.92Zm-3.95,0h-1.97v-2.92h1.97v2.92Zm-3.95,0h-1.97v-2.92h1.97v2.92Zm-3.95,0h-1.97v-2.92h1.97v2.92Zm-3.95,0h-1.97v-2.92h1.97v2.92Zm-3.95,0h-1.97v-2.92h1.97v2.92Zm-3.95,0h-1.97v-2.92h1.97v2.92Zm-3.95,0h-1.97v-2.92h1.97v2.92Zm-3.95,0h-1.97v-2.92h1.97v2.92Zm-3.95,0h-1.97v-2.92h1.97v2.92Zm-3.95,0h-1.97v-2.92h1.97v2.92Zm-3.95,0h-1.97v-2.92h1.97v2.92Zm-3.95,0h-1.97v-2.92h1.97v2.92Zm-3.95,0h-1.97v-2.92h1.97v2.92Zm-3.95,0h-1.97v-2.92h1.97v2.92Zm-3.95,0h-1.97v-2.92h1.97v2.92Zm-3.95,0h-1.97v-2.92h1.97v2.92Zm-3.95,0h-1.97v-2.92h1.97v2.92Zm-3.95,0h-1.97v-2.92h1.97v2.92Zm-3.95,0h-1.97v-2.92h1.97v2.92Z"/>
    <rect class="cls-11" x="142.91" y="63.57" width=".97" height="2.92"/>
  </g>
  <g>
    <rect class="cls-11" x="149.39" y="36.1" width=".97" height="2.9"/>
    <path class="cls-11" d="M287.47,39h-1.96v-2.9h1.96v2.9Zm-3.92,0h-1.96v-2.9h1.96v2.9Zm-3.92,0h-1.96v-2.9h1.96v2.9Zm-3.92,0h-1.96v-2.9h1.96v2.9Zm-3.92,0h-1.96v-2.9h1.96v2.9Zm-3.92,0h-1.96v-2.9h1.96v2.9Zm-3.92,0h-1.96v-2.9h1.96v2.9Zm-3.92,0h-1.96v-2.9h1.96v2.9Zm-3.92,0h-1.96v-2.9h1.96v2.9Zm-3.92,0h-1.96v-2.9h1.96v2.9Zm-3.92,0h-1.96v-2.9h1.96v2.9Zm-3.92,0h-1.96v-2.9h1.96v2.9Zm-3.92,0h-1.96v-2.9h1.96v2.9Zm-3.92,0h-1.96v-2.9h1.96v2.9Zm-3.92,0h-1.96v-2.9h1.96v2.9Zm-3.92,0h-1.96v-2.9h1.96v2.9Zm-3.92,0h-1.96v-2.9h1.96v2.9Zm-3.92,0h-1.96v-2.9h1.96v2.9Zm-3.92,0h-1.96v-2.9h1.96v2.9Zm-3.92,0h-1.96v-2.9h1.96v2.9Zm-3.92,0h-1.96v-2.9h1.96v2.9Zm-3.92,0h-1.96v-2.9h1.96v2.9Zm-3.92,0h-1.96v-2.9h1.96v2.9Zm-3.92,0h-1.96v-2.9h1.96v2.9Zm-3.92,0h-1.96v-2.9h1.96v2.9Zm-3.92,0h-1.96v-2.9h1.96v2.9Zm-3.92,0h-1.96v-2.9h1.96v2.9Zm-3.92,0h-1.96v-2.9h1.96v2.9Zm-3.92,0h-1.96v-2.9h1.96v2.9Zm-3.92,0h-1.96v-2.9h1.96v2.9Zm-3.92,0h-1.96v-2.9h1.96v2.9Zm-3.92,0h-1.96v-2.9h1.96v2.9Zm-3.92,0h-1.96v-2.9h1.96v2.9Zm-3.92,0h-1.96v-2.9h1.96v2.9Zm-3.92,0h-1.96v-2.9h1.96v2.9Z"/>
    <rect class="cls-11" x="289.43" y="36.1" width=".97" height="2.9"/>
  </g>
  <path class="cls-11" d="M148.36,65.97h-3v-2h3v2Zm0-4h-3v-2h3v2Zm0-4h-3v-2h3v2Zm0-4h-3v-2h3v2Zm0-4h-3v-2h3v2Zm0-4h-3v-2h3v2Zm0-4h-3v-2h3v2Zm0-4h-3v-2h3v2Z"/>
</svg>